<?xml version="1.0" encoding="UTF-8"?>
<svg id="Capa_1" data-name="Capa 1" xmlns="http://www.w3.org/2000/svg" viewBox="0 0 525.39 377.7">
  <defs>
    <style>
      .cls-1 {
        fill: #f4f4f4;
      }

      .cls-2 {
        fill: #e2e2e2;
      }

      .cls-3 {
        fill: #f5f5f5;
      }

      .cls-4 {
        fill: #030303;
      }

      .cls-5 {
        fill: #2c2c2c;
      }

      .cls-6 {
        fill: #2d2d2d;
      }

      .cls-7 {
        fill: #f1f1f1;
      }

      .cls-8 {
        fill: #1e1e1e;
      }

      .cls-9 {
        fill: #010101;
      }

      .cls-10 {
        fill: #ededed;
      }
    </style>
  </defs>
  <g>
    <path class="cls-9" d="M525.19,371.73c-1.39-8.08-5.24-15.27-7.92-22.89-2.78-7.93-5.55-15.89-6.95-24.26-2.29-13.72-2.81-27.96-8.55-40.79-5.24-11.69-7.56-23.82-8.46-36.36-.22-3.17-2.86-7.54,3.01-8.95,1.05-.25,.51-1.89,.33-2.9-.4-2.26-.76-4.53-1.32-6.75-.59-2.34-.45-3.69,2.32-4.74,3.62-1.39,5.1-4.77,6.18-8.6,1.59-5.62-.37-10.75-.84-16.11-.66-7.56,1.09-15.2,.76-22.68-1.26-28.58-3.24-57.11-4.99-85.66-.17-2.69-.87-5.31-3.23-6.96-6.27-4.38-9.26-10.81-10.81-17.95-2.63-12.12-6.69-23.76-11.46-35.14-3.1-7.39-13.09-14.31-19.38-13.38-8.47,1.26-12.54,7.69-15.34,15.07-.81,2.14-1.67,4.39-1.78,6.62-.43,9-4.56,17.55-2.48,26.97,.7,3.2,.62,8.17-2.78,10.57-5.44,3.83-8.18,8.98-9.61,15.21-4.97,21.57-12.28,42.28-21.4,62.44-4.63,10.24-12.03,17.55-20.8,23.86-4.52,3.26-7.16,7.47-8.5,12.52-.05,1.37-.04,2.74,.02,4.11,1.99-.24,1.77-2.66,3.27-3.09,.74,1.48-.25,2.54-.39,3.71-.15,1.26,.82,2.58,1.5,1.46,1.42-2.32,3.83-1.35,5.31-1.67,4.59-.99,4.66-5.41,7.22-7.8,6.05-5.64,11.82-11.56,17.59-17.49,12.33-12.68,24.39-25.53,26.02-44.69h.02c.83,6.43,2.16,12.42-1.64,18.84-14.73,24.87-28.77,50.13-41.24,76.25-1.6,3.36-.99,4.53,1.96,5.91,4.14,1.93,8.19,3.99,12.81,4.58,5.21,.67,10.4,1.5,15.6,2.3,2.33,.35,4.29,.96,4.94,3.85,3.19,14.09,7.41,28.01,6.99,42.69-.27,9.59,1,18.98,2.89,28.37,2.15,10.7,5.51,21.16,5.94,32.22,.32,8.2-1.03,16.18-2.07,24.22-.61,4.73,2.73,8.65,7.45,8.94,5.54,.34,9.5-3.13,8.84-8.4-1-7.94-.41-15.87-.37-23.8,0-2.88-.18-5.85-2.49-7.81-2.34-1.99-2.44-4.33-2.38-7.09,.32-14.47,2.52-29.04,.75-43.39-1.73-13.99,1.66-27.83-.41-41.7-.17-1.12-.29-2.41,1.24-3.12,3.72-1.7,14.97,2.17,16.28,5.98,4.15,11.99,9.6,23.65,13.21,35.62,5.25,17.43,12.92,33.5,20.7,49.67,1.49,3.09,2.47,6.18,2.02,9.66-.7,5.4,.49,10.53,2.34,15.55,1.6,4.31,3.12,8.63,3.7,13.22,1.02,7.95,2.96,9.45,11.03,9.72,4.5,.15,6.11-1.6,5.37-5.97h-.02Z"/>
    <path d="M370.38,194.96c.19-1.42,.45-2.79,.8-4.1,.03-.99,.09-1.98,.19-2.97,.74-7.13-.11-14.06-4.06-21.27-3.13-5.71-8.5-11.2-8.04-19.39,.17-3.05-.19-5.61,1.64-8.25,5.57-7.98,11.08-15.99,16.51-24.07,3.42-5.09,4.08-9.87,.72-15.91-3.96-7.11-10.89-12.31-12.57-20.89-1.8-9.22-8.03-14.46-16.8-16.77-11.76-3.08-15.47-13.15-7.69-22.66,.41,.83,.79,1.6,1.2,2.43,.86-1.28-.32-3.13,1.13-4.16,1.19,.83-.35,2.78,1.1,3.05,4.19-8.36,.99-16.49-.6-24.56-2.79-14.16-12.9-19.02-25.65-12.74-.69,.33-1.34,.73-2.04,1-7.82,3.03-8.96,5.24-8.53,13.72,.42,8.21,4.52,15.59,4.67,23.76,1.83,.62,1.23-3.01,2.64-1.63,1.84,1.8,4.06,3.69,4.26,6.56,.16,2.35-1.32,3.83-3.33,4.87-3.71,1.92-7.39,3.71-11.57,4.6-5.81,1.24-11.54,3.29-13.79,9.69-3.36,9.55-6.31,19.19-7.29,29.39-.72,7.41-1.5,14.88-3.76,22.02-2.51,7.97-2.12,15.86,.3,23.68,1.58,5.1,3.06,10.34,5.5,15.04,5.17,9.96,6.38,19.35-1.47,28.52-.84,.99-1.97,2.31-.27,3.92,5.92,5.61,9.4,13.45,16.28,18.24,2.68,1.87,3.24,4.57,3.7,7.84,3.32,23.54-1.67,46.83-1.77,70.26,0,1.23-.83,2.48-1.37,3.67-9.38,20.28-22.25,37.67-41.18,49.99-.95,.62-1.79,1.42-2.68,2.14-5.56,4.51-5.93,7.28-1.47,12.99,1.15,1.48,2.6,2.89,4.2,3.81,4.41,2.51,7.46,5.3,2.95,10.97,5.72-.02,10.36,2.07,14.8,2.81,3.43,.57,5.48,2.2,8.13,3.42,.99,.45,1.8-.13,2.61-.66,7.99-5.24,18.58-8.64,14.94-21.94-.19-.69,.14-1.52,.1-2.28-.11-2.18,1.15-3.04,3.05-3.41,2-.39,3.14,.47,4.02,2.27,1.33,2.7,.93,5.63,1.43,8.44,.26,1.47-.04,3.03,2.09,3.48,7.93,1.67,15.56,2.97,22.41-3.62,5.44-5.24,23.59-5.54,28.98-.42,4.14,3.93,8.77,5.14,13.99,5.1,2.31-.02,6.55,1.69,4.77-3.91-.42-1.34,1.09-1.91,2.14-2.19,7.12-1.9,13.51-7.27,21.67-4.17h0c.32-2.83-1.66-5.25-.11-7.59,2.11-3.2,1.43-6.45,.52-9.82-3.83-14.2-7.16-28.55-11.46-42.6-6.06-19.8-9.41-40.6-20.67-58.58-1.16-1.86-1.99-4.43-1.8-6.56,.91-10.3-2.18-20.28-2.64-30.52-.24,.03-.51,.03-.83,0v-.04Zm-22.23-105.4c-.5,1.09-1.26,2.01-2.67,1.97h0c-.8-.93-.46-2.01-.46-3,0-1.13-.59-2.48,.62-3.3,.65-.44,1.48-.18,1.96,.51,.8,1.16,1.16,2.48,.56,3.82h0Z"/>
    <path d="M371.19,190.86c-.35,1.31-.62,2.68-.8,4.1,.31,.04,.58,.04,.83,0-.06-1.36-.07-2.73-.02-4.11h-.01Z"/>
  </g>
  <path d="M40.85,54.54c-.66-4.58-3.64-8.57-3.41-13.38,.04-.92-.58-1.17-1.3-1.58-4.13-2.36-4.33-6.71-3.29-10.22,.88-2.97,.53-5.34-.36-7.84-1.96-5.51-.64-10.54,1.7-15.53,.56-1.18,1.35-2.39,2.51-2.57,3.99-.6,7.78-2.48,11.67-2.79,13.89-1.12,22.53,9.27,19.57,22.96-.71,3.3,1.81,6.24,.87,9.56-.37,1.3,.4,3.06-.8,3.98-4.04,3.06-2.85,7.79-3.97,11.77-.71,6.14-5.02,9.93-9.04,13.88-1.71,1.67-3.7,1.81-5.9,.59-3.42-1.9-6.36-4.26-8.53-7.54-.13-.47-.04-.9,.27-1.28h.01Z"/>
  <path d="M177.53,46.97c-1.05-2.56-2.45-5.01-2.18-7.96,.08-.87-.15-1.5-.91-2.32-3.25-3.44-4.96-7.28-1.81-11.88,.5-.72,.28-2.13,.04-3.13-1.74-7.41-1.04-13.21,6.66-17.69,7.69-4.48,13.76-5.67,21.38-1.08,2.32,1.4,4.45,3.15,5.31,5.67,2.65,7.73,2.53,16.02,2.14,23.83-.19,3.93-3.36,8.65-5,13.1-.57,1.53-1.03,2.86-.54,4.42,1.2,2.45-.66,3.73-2.07,5.01-5.64,5.16-15.96,4.61-21.51-.68-2.43-2.31-.33-5.03-1.49-7.31h0v.02Z"/>
  <path class="cls-6" d="M206.43,52.63c-.48,4.45,2.3,8.02,4.39,11.13,4.16,6.19,2.95,11.52,.32,17.58-6.58,15.16-12.83,30.46-19.21,45.71-.06,.14-.13,.28-.21,.42-.88,1.41-1,3.93-2.74,4.02-1.95,.09-1.89-2.49-2.45-3.9-7.18-17.92-14.22-35.9-21.38-53.83-.68-1.69-.37-2.83,.53-4.28,2.53-4.07,4.74-8.35,7.34-12.37,.99-1.53,1.12-3.15,1.59-4.74,.34-.47,.68-.93,1.02-1.4,2.27-1.29,2.08,.72,2.48,1.89,1.19,3.45,.16,7.15,1.08,10.61,2.9,10.94,4.94,22.04,6.37,33.26,.22,1.7,.46,3.36,.32,5.07,0,.12-.29,.67,.26,.47,.12-.04,.13-.57,.3-.85,3.22,.03,2.27,2.61,2.39,4.25,.36,4.92-1.34,9.88,.25,14.79,.04,.13,.13,.25,.14,.28,2.42-4.37,.9-9.49,2.38-14.1,2.17-8.34,3.26-16.89,5-25.32,.87-4.22,1.63-8.39,3.5-12.41,1.96-4.21,1.22-9.12,2.08-13.67,.31-1.64-.25-3.77,2.19-4.33,.68,.57,1.36,1.14,2.04,1.71h.02Z"/>
  <path class="cls-3" d="M204.39,50.92c-.99,.58-.81,1.59-.88,2.48-1.41,18.06-8.13,35.07-10.39,52.97,0,.15-.08,.38-.17,.4-.22,.06-.46,.02-.69,.03-1.28-1.19-1.26-2.8-1.23-4.32,.13-7.89-.59-15.8,.65-23.66,.83-5.3-.91-10.31-2.03-15.44-.53,4.21-1.58,8.3-1.57,12.54,0,6.51,.04,13.01-.02,19.52-.02,1.98,.33,4.07-1.15,5.77-.1,1.67-.21,3.35-.3,5.03l-.66,.1c-1.23-7.4-2.68-14.76-3.64-22.2-1.35-10.54-5.98-20.54-5.11-31.44,.07-.97-.29-1.84-1.57-1.73,.95-1.18,2.16-2.24,1.9-3.99,2.01,7.2,4.91,9.76,11.64,10.3,6.33,.51,11.13-2.12,13.44-7.33,.77,.02,1.46,.17,1.78,.99h0v-.02Z"/>
  <path class="cls-6" d="M69.87,56.35c2.33,2.08,1.85,5.78,4.7,7.75,1.49,1.03,.65,3.12,.07,4.77-4.1,11.65-8.21,23.3-12.27,34.97-2.28,6.56-4.47,13.15-6.7,19.73-.57,.3-1.03,.17-1.37-.38-1.16-5.45,.71-10.69,1.38-15.98,.94-7.5,1.84-15.01,2.81-22.52,1.11-4.37,1.33-8.88,1.9-13.33,.77-4.51,.82-9.09,1.41-13.63,.28-2.19,.65-4.22,2.36-5.76,1.9,1.46,3.81,2.91,5.72,4.37h-.01Z"/>
  <path class="cls-8" d="M54.88,123.61c.27-.01,.53-.03,.79-.05-.22,1.94-.85,3.75-2.32,.81-2.19-4.36-3.9-8.98-5.81-13.49-5.53-12.99-11.02-26-16.66-38.94-.97-2.22-1.45-3.9,.74-5.67,2.12-1.71-1.49-1.96-1.07-3.34,4.31-1.72,7.03-5.39,10.31-8.39,.02,.36,.04,.72,.06,1.09,2.99,4.16,2.39,9.27,3.65,13.89,1.17,5.86,1.29,11.93,3.46,17.6,1.09,8.37,2.49,16.69,4.71,24.84,1.05,3.84,.5,7.95,2.14,11.67h0v-.02Z"/>
  <path class="cls-2" d="M43.59,69.65c-1.58-4.54-1.69-9.37-2.69-14.02,2.86,2.27,5.38,4.94,8.58,6.78,1.45,.83,2.75,1.49,4.1,.12,4.04-4.1,8.37-8.02,10.46-13.63,.03,1.03,.07,2.05,.1,3.09-.9,6.55-1.81,13.09-2.71,19.64-1.68-.74-3.29-1.61-4.93-2.43-2.76-2.82-5.41-3.36-7.84,.39-1.68,.73-3.36,1.68-5.07,.07h0Z"/>
  <g>
    <path d="M206.45,52.64h0s-.02,0-.03,0h.02Z"/>
    <polygon points="206.46 52.64 206.46 52.65 206.47 52.64 206.46 52.64"/>
    <path d="M188.48,202.88c.09,3.11,.23,6.21,.27,9.31,.65,48.16-2.34,96.41,3.49,144.45,.35,2.91,4.06,5.48,6.19,3.65,3.46-2.98,3.88,.72,5.07,1.97,.84,.89,.82,2.59,2.28,3.26,4.99,2.27,10.09,3.98,15.67,2.89,4.88-.95,5.41-2.16,2.02-5.91-4.25-4.7-8.71-9.2-12.28-14.47-.62-.9-1.41-1.4-1.28-3.06,1.05-14.08,1.47-28.21,2.64-42.28,1.45-17.61-1.55-35.38,2.1-52.91,1.23-5.9,1.78-11.95,2.78-17.91,2.27-13.45,4.01-26.99,7.27-40.26,.35-1.43,.15-3.44,2.14-3.7,6.45-.86,8.38-5.85,8.91-10.94,1.61-15.53,9.06-30.02,6.75-46.42-.93-6.59-.87-13.78-.84-20.72,.07-13.06-2.65-25.89-4.87-38.72-.84-4.83-3.15-8.41-8.31-10.11-7.45-2.45-14.69-5.54-22.02-8.36-2.65,.6-1.09,2.31-.65,3.33,1.35,3.13,2.46,6.44,4.36,9.24,3.16,4.67,2.75,9.23,.59,14.05-5.64,12.6-10.84,25.38-16.29,38.06-1.69,3.93-2.94,8.08-5.11,11.84-1.75-.79-1.86-2.33-2.32-3.56-4.96-13.2-9.66-26.58-15.65-39.3-4.86-10.34-5.8-19.1,2.13-27.95,1.39-1.55,2.48-3.66,1.13-5.97-6.95,4.36-14.09,8.35-21.92,10.92-5.79,1.89-9.34,5.27-8.7,11.88,.08,.85-.27,1.81-.63,2.63-2.21,5.01-3.16,10.33-4.07,15.69-1.31,7.64-1.53,15.46-3.66,22.95-3.97,13.93-2.86,27.97,.77,41.55,1.56,5.83,3.15,11.57,3.9,17.53,.34,2.7,1.2,4.72,4.13,5.41,3.24,.76,4.39,2.97,4.13,6.23-.35,4.34-.63,8.68-.68,13.02-.24,19.39-1.87,38.7-1.65,58.14,.16,15.08-2.57,30.22-2.57,45.48-.01,14.08-1.44,28.11-3.25,42.15-.86,6.7-3.83,9.57-8.63,12.37-3.34,1.94-6.59,4.03-9.85,6.1-1.26,.8-1.87,1.88-1.62,3.53,.28,1.81,1.61,2.25,2.93,2.42,8.03,1.04,15.94,1.8,23.01-3.9,2.29-1.83,5.16-3.62,8.86-1.46,3.02,1.78,7.22-.02,7.52-2.43,.73-5.91,1.66-11.69,3.47-17.46,3.05-9.7,2.16-19.99,2.85-30.03,1.1-16.05,.59-32.2,4.62-48.02,5.47-21.48,10.05-43.16,13.34-65.1,.53-.53,.6-1.27,.83-1.93m-31.02-53.8c-6.16-11.87-1.03-23.12,1.29-34.52,1.59,11.57,.83,23.04-1.29,34.52Zm64.8-.29c-1.46-11.26-2.63-22.29-.37-33.45,2.65,11,5.7,22.07,.37,33.45Z"/>
  </g>
  <path class="cls-10" d="M218,98.32h-10.55c2.09-1.36,3.29-2.16,4.5-2.93,3.07-1.97,5.09-.99,6.05,2.93Z"/>
  <path d="M97.88,180.49c5.02-.36,4.18-4.09,5.06-6.54,2.11-5.82,3.62-11.84,5.46-17.76,3.47-11.2,6.24-22.72,4.56-34.35-2.8-19.35-8.22-38.13-14.27-56.72-.88-2.68-2.29-4.05-5.12-4.51-7.91-1.29-15.8-2.82-23.7-4.26h-.02c-.14-.07-.28-.16-.43-.17-.12-.01-.31,.01-.37,.09-.92,1.3,.53,1.81,.86,2.71,1.41,3.89,4.87,6.91,2.83,12.11-6.63,16.86-12.06,34.16-17.98,51.31-.08,.16-.14,.31-.24,.42-.1,.11-.33,.25-.38,.21-2.34-1.72-2.15-4.64-3.15-6.98-6.2-14.38-12.12-28.88-18.46-43.2-.83-1.87-1.68-3.71-.07-5.65,2.25-2.7,.22-3.54-1.93-4.28-4.45,1.7-8.89,3.45-13.38,5.06-2.9,1.04-4.47,3.04-5.2,5.98-1.3,5.26-2.79,10.48-4.1,15.74C4.18,104.44,.32,119.22,.01,134.49c-.38,18.61,7.8,35.21,13.49,52.39,.22,.66,.79,1.65,1.28,1.7,6,.66,7.03,5.01,7.58,9.87,.68,6.01,1.53,12,2.21,18.01,1.81,16.18,5.6,32.24,5.26,48.53-.47,22.84,6.78,44.29,10.25,66.4,.36,2.34,.43,3.98-.84,5.92-2.63,4-5.36,8-7.46,12.28-1.51,3.06-2.26,6.89,.51,9.63,2.89,2.86,6.47,1.64,9.99,.49,8.21-2.67,8.72-12.13,14.85-16.6,.41-.31,.14-1.5,.3-2.25,1.23-5.84,.08-11.72,.35-17.56,.41-8.99-4.03-17.2-3.2-26.4,1.01-11.42,.42-22.97-2.83-34.17-.17-.58-.32-1.22-.28-1.81,1.15-14.83,2.19-29.68,3.57-44.48,.48-5.14,.56-10.45,2.6-15.68,1.77,2.12,2.22,4.4,2.73,6.6,3,12.99,7.26,25.63,10.7,38.49,2.62,9.8,4.84,19.79,3.79,30.17-1.09,10.84-1.32,21.76,1.04,32.43,2.37,10.71,2.16,21.4,1.16,32.13-.57,6.18-2.35,12.43,5.45,15.5,.85,.34,.86,1.2,1.06,1.93,2.59,9.42,6.75,12.7,16.21,12.75,5.15,.02,6.72-1.69,6.15-6.77-.25-2.2-1.11-4.16-2.27-6.03-2.04-3.29-4.09-6.59-5.91-10-1.22-2.3-2.7-4.86-1.78-7.5,2.42-6.95,1.95-14.02,1.75-21.17-.44-15.68,.6-31.4-.77-47.04-2.44-27.88-2.27-55.84-3.3-83.76-.14-3.83,2.29-7.86,4.23-8Zm-74.68-21.58h0c-4.56-11.66-5.99-23.47-2.15-35.57,1.34-4.22,2.95-8.38,2.77-12.98,5.32,16.24,4.57,32.4-.62,48.55Zm68.99-15.55c-.8-10.12-1.59-20.3-2.43-31.05,5.09,7.37,6.29,25.64,2.43,31.05Z"/>
  <path class="cls-5" d="M81.07,92.81c1.61,.09,3.09-.27,3.34,1.48,.29,1.97-1.07,2.16-2.59,2.31-3.34,.33-6.68,.75-9.99,1.26-1.21,.19-2.55,.97-2.89-.92-.33-1.84,.66-3.02,2.53-3.09,3.37-.13,6.75-.04,9.6-1.04h0Z"/>
  <path class="cls-4" d="M186.92,101.2c-.09-9.47-.16-18.95-.29-28.43-.04-3.11,2.59-5.99,.41-9.4-.51-.81,1.45-2.98,2.97-2.89,1.03,.06,2.51,1.38,2.45,2.97-.28,7.93,.86,15.82,.22,23.78-.51,6.49-.3,13.03-.4,19.56,.28,5.47-.57,10.8-1.84,16.08-.18,.74-.23,1.53-1.48,1.95-.86-4.56-2.68-8.74-1.49-13.69,.75-3.12,.92-6.7-.54-9.93h-.01Z"/>
  <path class="cls-9" d="M48.32,69.51c-.34-2.51,1.72-4.05,3.23-4.33,2.16-.4,4.2,1.13,5.22,3.41-.57,5.53,3.26,10.31,2.69,15.85-.29,11.67-2.62,23.09-4.2,34.6-.21,1.51-.26,3.05-.39,4.57-3.67-4.71-2.82-10.74-4.55-16.05-1.6-4.89-1.96-10.16-3.29-15.15-.53-1.99,1.08-3.55,.27-5.35-1.38-2.33-.94-4.81-.22-7.14,1.03-3.41,1.49-6.85,1.26-10.4h-.02Z"/>
  <path class="cls-7" d="M59.46,84.44c-.81-2.27-1.34-4.71-2.51-6.77-1.75-3.11-1.7-6.02-.19-9.07,1.81,.6,4.19,.36,4.68,3.02-.37,4.32-.04,8.75-1.99,12.83h0Z"/>
  <path class="cls-1" d="M48.32,69.51c2.1,2.34,2.12,4.82,.88,7.64-1.37,3.12-2.14,6.42-1.9,9.89-1.97-.39-1.47-2.07-1.66-3.32-.71-4.69-1.36-9.39-2.04-14.08,1.58,.38,3.12-1,4.72-.13h0Z"/>
</svg>