<?xml version="1.0" encoding="utf-8"?>
<!-- Generator: Adobe Illustrator 28.0.0, SVG Export Plug-In . SVG Version: 6.00 Build 0)  -->
<svg version="1.1" id="Capa_1" xmlns="http://www.w3.org/2000/svg" xmlns:xlink="http://www.w3.org/1999/xlink" x="0px" y="0px"
	 viewBox="0 0 9.9 9.9" style="enable-background:new 0 0 9.9 9.9;" xml:space="preserve">
<style type="text/css">
	.st0{fill:#fff;}
</style>
<path class="st0" d="M8.9,2H1C0.4,2,0,1.5,0,1s0.4-1,1-1h7.9c0.6,0,1,0.4,1,1S9.4,2,8.9,2z"/>
<path class="st0" d="M8.9,5.9H2c-0.5,0-1-0.4-1-1s0.5-1,1-1h6.9c0.6,0,1,0.4,1,1S9.5,5.9,8.9,5.9z"/>
<path class="st0" d="M8.9,9.9H3.2c-0.5,0-1-0.4-1-1s0.5-1,1-1h5.7c0.6,0,1,0.4,1,1S9.4,9.9,8.9,9.9z"/>
</svg>
