<?xml version="1.0" encoding="utf-8"?>
<!-- Generator: Adobe Illustrator 28.0.0, SVG Export Plug-In . SVG Version: 6.00 Build 0)  -->
<svg version="1.1" id="Capa_1" xmlns="http://www.w3.org/2000/svg" xmlns:xlink="http://www.w3.org/1999/xlink" x="0px" y="0px"
	 viewBox="0 0 1000 1000" style="enable-background:new 0 0 1000 1000;" xml:space="preserve">
<style type="text/css">
	.st0{fill:#272727;}
</style>
<g>
	<path class="st0" d="M414.5,381.4c0-1.9,0-3.4,0-4.9c0-47.7,0-95.4,0-143.1c0-18.8,12.3-31.5,31.1-31.5c89.1-0.1,178.3-0.1,267.4,0
		c18.6,0,30.9,12.6,31,31.3c0.1,37.5,0,74.9,0,112.4c0,1.8,0,3.7,0,5.8c15.1,0,29.8,0,45,0c0-14.5,0-29.2,0-44.4
		c1.9,0.5,3.3,0.8,4.6,1.2c12.1,4,24.2,8.2,36.4,12c3,1,3.9,2.4,3.9,5.5c-0.1,117.2-0.1,234.4,0,351.6c0,2.9-0.6,4.6-3.7,5.5
		c-12.5,3.9-24.8,8.2-37.3,12.3c-1.1,0.3-2.1,0.6-3.7,1c0-14.9,0-29.5,0-44.4c-15.1,0-29.8,0-45.3,0c0,1.8,0,3.6,0,5.4
		c0,37.7,0,75.5,0,113.2c0,14.9-8.4,26.1-22.4,30.1c-1.9,0.5-3.9,0.7-5.9,0.7c-84,0-168,0-252,0c-1.2,0-2.5,0-4.2,0
		c0-8.6-0.5-16.8,0.1-25c0.9-11.3-1.8-21.1-7.8-30.9c-5.5-8.9-8.5-19.4-12.7-29.2c-1.3-3.1-0.5-5,2.2-7.1
		c22.6-16.7,41.1-37.2,55-61.7c37-65.5,30.4-143.4-25.1-198.7c-1.7-1.7-3.2-4-4-6.3c-6.4-18.8-12.7-37.7-18.9-56.6
		c-1-3-2.3-4.2-5.6-4.1C433.5,381.5,424.3,381.4,414.5,381.4z M789,606.2c0-70.1,0-139.8,0-209.7c-1.7-0.1-3.1-0.2-4.5-0.2
		c-11.8,0-23.6,0.2-35.4-0.1c-4.2-0.1-5.1,1.3-5.1,5.3c0.1,66.6,0.1,133.3,0.1,199.9c0,1.5,0,3.1,0,4.8
		C759.3,606.2,774,606.2,789,606.2z M504.6,336.5c0.6,0.5,1,0.9,1.4,1.2c23.7,14.2,47.4,28.3,71,42.6c2.2,1.4,3.6,0.5,5.3-0.5
		c22.8-13.7,45.6-27.3,68.4-41c1.1-0.6,2.1-1.4,3.3-2.2c-0.8-0.6-1.4-1-2-1.4c-23.4-14.1-46.8-28.1-70.1-42.3
		c-2.3-1.4-3.8-0.9-5.7,0.3c-22.9,13.8-45.8,27.6-68.7,41.3C506.6,335.1,505.7,335.8,504.6,336.5z"/>
	<path class="st0" d="M231.3,426.7c-3.5-13.3-6.9-26-10.3-38.5c-0.3-1.1-1.7-2.2-2.8-2.8c-20.7-11.5-26.4-31.2-15.2-51.8
		c0.8-1.5,0.9-3.8,0.3-5.5c-19.9-61.5-48-118.8-86-171.2c-0.7-1-1.4-2.1-2.4-3.6c12-8.8,23.8-17.6,36.2-26.7
		c7.8,11.7,15.7,22.9,23.2,34.5c30.5,47.7,53.8,98.8,71.4,152.6c1,3,2.5,4.6,5.3,5.9c20.1,9.4,26.9,33,15,51.9
		c-1.6,2.6-1.8,4.7-1.1,7.5c3.9,14.2,7.9,28.5,11.4,42.8c0.9,3.7,2.3,4.9,6.2,4.9c42.4-0.1,84.9,0,127.3-0.2c3.7,0,5.1,1.2,6.2,4.6
		c3.8,12.1,7.8,24.1,12,36c0.9,2.7,2.7,5.3,4.8,7.2c22.5,20.2,37.3,44.8,40.7,75.2c3.3,29.9-4.4,57.3-20.6,82.4
		c-14.7,22.9-34.6,40.2-58.2,53.5c-7.3,4.1-7.5,4.1-6.1,12.2c4.2,24.7,11.4,48.4,23.8,70.3c1.1,2,1.8,4.5,1.9,6.8
		c0.2,8.5,0.1,17.1,0.1,25.9c-79.8,0-159.3,0-239.5,0c0-6,0.2-12.1-0.1-18.1c-0.4-7.3,1.2-13.7,4.8-20.2
		c11.8-21.7,18-45.3,21.9-69.6c0.5-3-1.2-4-3.3-5.1c-21.6-11.3-40.2-26.3-55.1-45.7c-21-27.3-31-58.2-27.5-92.6
		c3.1-30.3,18.2-54.6,40.5-74.8c2.2-2,4.1-4.7,5.1-7.5c4.3-12,8.3-24.2,12.2-36.4c1-3.1,2.5-4.1,5.7-4c15.7,0.2,31.3,0.1,47,0.1
		C227.4,426.7,229,426.7,231.3,426.7z"/>
	<path class="st0" d="M474.9,171.1c3.1-4.7,5.8-8.8,8.6-12.9c6.2-9.2,12.5-18.3,18.4-27.7c1.6-2.5,2.6-5.7,2.6-8.6
		c0.3-13.2,0.1-26.4,0.1-39.9c49.9,0,99.5,0,149.6,0c0,9,0.7,18-0.2,26.9c-1.2,12.4,2,22.9,9.8,32.7c6.5,8.1,11.7,17.1,17.5,25.8
		c0.8,1.1,1.4,2.4,2.3,3.9C614,171.1,544.8,171.1,474.9,171.1z"/>
</g>
</svg>
